<svg width="24" height="24" viewBox="0 0 24 24" fill="none" xmlns="http://www.w3.org/2000/svg">
<path d="M19.9167 10.5833C19.9167 13.1607 18.872 15.494 17.183 17.183C15.494 18.872 13.1607 19.9167 10.5833 19.9167C5.42868 19.9167 1.25 15.738 1.25 10.5833C1.25 5.42868 5.42868 1.25 10.5833 1.25C15.738 1.25 19.9167 5.42868 19.9167 10.5833Z" fill="url(#paint0_linear_2298_1606)"/>
<path d="M22.25 22.25L17.183 17.183M17.183 17.183C18.872 15.494 19.9167 13.1607 19.9167 10.5833C19.9167 5.42868 15.738 1.25 10.5833 1.25C5.42868 1.25 1.25 5.42868 1.25 10.5833C1.25 15.738 5.42868 19.9167 10.5833 19.9167C13.1607 19.9167 15.494 18.872 17.183 17.183Z" stroke="url(#paint1_linear_2298_1606)" stroke-width="2.5" stroke-linecap="round" stroke-linejoin="round"/>
<defs>
<linearGradient id="paint0_linear_2298_1606" x1="-0.383333" y1="1.25" x2="27.7775" y2="8.16004" gradientUnits="userSpaceOnUse">
<stop stop-color="#FFAB35"/>
<stop offset="1" stop-color="#E62727"/>
</linearGradient>
<linearGradient id="paint1_linear_2298_1606" x1="-0.383333" y1="1.25" x2="27.7775" y2="8.16004" gradientUnits="userSpaceOnUse">
<stop stop-color="#FFAB35"/>
<stop offset="1" stop-color="#E62727"/>
</linearGradient>
</defs>
</svg>
